<?xml version="1.0" encoding="iso-8859-1"?>
<!-- Generator: Adobe Illustrator 19.0.0, SVG Export Plug-In . SVG Version: 6.00 Build 0)  -->
<svg version="1.1" id="Capa_1" xmlns="http://www.w3.org/2000/svg" xmlns:xlink="http://www.w3.org/1999/xlink" x="0px" y="0px"
	 viewBox="0 0 512 512" style="enable-background:new 0 0 512 512;" xml:space="preserve">
<rect x="339.5" y="33.75" style="fill:#44E7FF;" width="15" height="45"/>
<path style="fill:#CB5956;" d="M219.5,151.25h-15c-4.142,0-7.5,3.358-7.5,7.5s3.358,7.5,7.5,7.5h15c4.136,0,7.5,3.364,7.5,7.5
	s-3.364,7.5-7.5,7.5h-117v15h117c12.407,0,22.5-10.093,22.5-22.5S231.907,151.25,219.5,151.25z"/>
<path style="fill:#1C6C78;" d="M65,298.413v186.929l-24.87,8.29c-3.93,1.31-6.053,5.557-4.744,9.487
	c1.31,3.93,5.559,6.054,9.487,4.744l29.998-10c3.062-1.021,5.128-3.887,5.128-7.115V298.413H65z"/>
<path style="fill:#55585D;" d="M140,298.413v186.929l24.87,8.29c3.93,1.31,6.053,5.557,4.744,9.487
	c-1.31,3.93-5.559,6.054-9.487,4.744l-29.998-10c-3.062-1.021-5.128-3.887-5.128-7.115V298.413H140z"/>
<g>
	<path style="fill:#FF5A52;" d="M102.5,296.25h-45c-31.706,0-57.5-25.794-57.5-57.5s25.794-57.5,57.5-57.5h45v15h-45
		c-23.435,0-42.5,19.065-42.5,42.5s19.065,42.5,42.5,42.5h45V296.25z"/>
	<polygon style="fill:#FF5A52;" points="459.5,138.75 459.5,168.75 482,198.75 504.5,168.75 504.5,138.75 	"/>
</g>
<polygon style="fill:#CB5956;" points="504.5,198.75 482,228.75 459.5,198.75 459.5,168.75 504.5,168.75 "/>
<polygon style="fill:#FF5A52;" points="504.5,251.25 459.5,258.75 459.5,198.75 504.5,198.75 "/>
<path style="fill:#FFBD3D;" d="M429.5,149.054v79.7l-75,45l45-124.56c0.82-0.09,1.65-0.14,2.5-0.14c5.18,0,9.95,1.76,13.75,4.7
	C419.55,150.814,424.32,149.054,429.5,149.054z"/>
<path style="fill:#FFD686;" d="M399.5,149.194v124.56l-135-45v-79.7c5.18,0,9.95,1.76,13.75,4.7c3.8-2.94,8.57-4.7,13.75-4.7
	s9.95,1.76,13.75,4.7c3.8-2.94,8.57-4.7,13.75-4.7s9.95,1.76,13.75,4.7c3.8-2.94,8.57-4.7,13.75-4.7s9.95,1.76,13.75,4.7
	c3.8-2.94,8.57-4.7,13.75-4.7s9.95,1.76,13.75,4.7C391.43,151.294,395.29,149.664,399.5,149.194z"/>
<polygon style="fill:#44E7FF;" points="369.5,288.75 429.5,258.75 429.5,228.75 399.5,228.75 "/>
<polygon style="fill:#90F0FF;" points="399.5,288.75 264.5,258.75 264.5,228.75 399.5,228.75 "/>
<polygon style="fill:#CB5956;" points="422,3.75 429.5,33.749 399.5,33.749 379.5,18.75 399.5,3.75 "/>
<polygon style="fill:#FF5A52;" points="272,3.75 264.5,33.749 399.5,33.749 399.5,3.75 "/>
<polygon style="fill:#CB5956;" points="429.5,258.75 429.5,318.75 399.5,318.75 379.5,288.75 399.5,258.75 "/>
<rect x="264.5" y="258.75" style="fill:#FF5A52;" width="135" height="59.999"/>
<path style="fill:#44E7FF;" d="M362,63.75l-15,45h30c8.25,0,15-6.75,15-15v-30H362z"/>
<path style="fill:#90F0FF;" d="M362,93.75v-30h-60v30c0,8.25,6.75,15,15,15h30C355.25,108.75,362,102,362,93.75z"/>
<g>
	<circle style="fill:#FFFFFF;" cx="305.75" cy="176.25" r="7.5"/>
	<circle style="fill:#FFFFFF;" cx="333.25" cy="198.75" r="7.5"/>
</g>
<circle style="fill:#FFBD3D;" cx="388.25" cy="183.75" r="7.5"/>
<path style="fill:#55585D;" d="M102.5,258.75v75c24.853,0,45-20.147,45-45L102.5,258.75z"/>
<path style="fill:#1C6C78;" d="M117.5,288.75l-15-30l-45,30c0,24.853,20.147,45,45,45C110.784,333.75,117.5,313.603,117.5,288.75z"
	/>
<path style="fill:#CB5956;" d="M127.5,168.75h-30l20,120h30v-100C147.5,177.704,138.546,168.75,127.5,168.75z"/>
<path style="fill:#FF5A52;" d="M97.5,168.75h-20c-11.046,0-20,8.954-20,20v100h60v-100C117.5,177.704,108.546,168.75,97.5,168.75z"
	/>
<circle style="fill:#FFD686;" cx="204.5" cy="128.75" r="7.5"/>
<path style="fill:#CB5956;" d="M102.5,3.75l15,90h30v-45C147.5,23.897,127.353,3.75,102.5,3.75z"/>
<path style="fill:#FF5A52;" d="M102.5,3.75c-24.853,0-45,20.147-45,45v45h60v-45C117.5,23.897,110.784,3.75,102.5,3.75z"/>
<path style="fill:#563131;" d="M102.5,48.75v65l45-20C147.5,68.897,127.353,48.75,102.5,48.75z"/>
<path style="fill:#FCA5A0;" d="M102.5,78.77v59.98c24.853,0,45-20.147,45-45C130.607,93.75,115.031,88.176,102.5,78.77z"/>
<path style="fill:#55585D;" d="M117.351,87.454c-1.021-21.87-7.279-38.704-14.851-38.704c-7.667,0-14.884,1.923-21.202,5.305
	L102.5,113.75L117.351,87.454z"/>
<path style="fill:#FABBC4;" d="M81.298,54.055C67.136,61.634,57.5,76.565,57.5,93.75c0,24.853,20.147,45,45,45
	c8.284,0,15-20.147,15-45c0-2.138-0.053-4.238-0.149-6.296C101.909,80.676,89.196,68.849,81.298,54.055z"/>
<g>
	<rect x="264.5" y="417.76" style="fill:#CB5956;" width="90" height="15"/>
	<rect x="422" y="3.75" style="fill:#CB5956;" width="15" height="346.51"/>
</g>
<path style="fill:#FF5A52;" d="M257,3.75v497c0,4.142,3.357,7.5,7.5,7.5s7.5-3.358,7.5-7.5v-497H257z"/>
<path style="fill:#FFD686;" d="M147.5,221.25h-30c-4.142,0-7.5-3.358-7.5-7.5s3.358-7.5,7.5-7.5h30c4.142,0,7.5,3.358,7.5,7.5
	S151.642,221.25,147.5,221.25z"/>
<g>
	<rect id="SVGCleanerId_0" x="422" y="350.26" style="fill:#33ADC0;" width="15" height="150"/>
</g>
<rect x="354.5" y="417.76" style="fill:#33ADC0;" width="150" height="15"/>
<g transform="matrix(0.7071 -0.7071 0.7071 0.7071 -174.91 428.26)">
	
		<rect id="SVGCleanerId_0_1_" x="421.991" y="350.263" transform="matrix(-0.7071 0.7071 -0.7071 -0.7071 1033.8922 422.2717)" style="fill:#33ADC0;" width="15" height="149.999"/>
</g>
<g transform="matrix(0.7071 0.7071 -0.7071 0.7071 426.5 -179.15)">
	
		<rect id="SVGCleanerId_0_2_" x="421.998" y="350.251" transform="matrix(-0.7071 -0.7071 0.7071 -0.7071 432.5014 1029.6495)" style="fill:#33ADC0;" width="15" height="149.999"/>
</g>
<path style="fill:#2C8896;" d="M429.5,507.763c-45.491,0-82.5-37.009-82.5-82.5s37.009-82.5,82.5-82.5s82.5,37.009,82.5,82.5
	S474.991,507.763,429.5,507.763z M429.5,357.763c-37.22,0-67.5,30.28-67.5,67.5s30.28,67.5,67.5,67.5s67.5-30.28,67.5-67.5
	S466.72,357.763,429.5,357.763z"/>
<circle style="fill:#90F0FF;" cx="429.5" cy="425.26" r="15"/>
<path style="fill:#965859;" d="M189.5,251.25c-4.142,0-7.5,3.358-7.5,7.5s3.358,7.5,7.5,7.5h315v-15H189.5z"/>
<g>
</g>
<g>
</g>
<g>
</g>
<g>
</g>
<g>
</g>
<g>
</g>
<g>
</g>
<g>
</g>
<g>
</g>
<g>
</g>
<g>
</g>
<g>
</g>
<g>
</g>
<g>
</g>
<g>
</g>
</svg>
